<?xml version="1.0" encoding="utf-8"?>
<!-- Generator: Adobe Illustrator 25.2.3, SVG Export Plug-In . SVG Version: 6.00 Build 0)  -->
<svg version="1.1" id="Camada_1" xmlns="http://www.w3.org/2000/svg" xmlns:xlink="http://www.w3.org/1999/xlink" x="0px" y="0px"
	 viewBox="0 0 1059 1059" style="enable-background:new 0 0 1059 1059;" xml:space="preserve">
<style type="text/css">
	.st0{fill:#FFFFFF;stroke:#002A02;stroke-width:35;stroke-linecap:round;stroke-linejoin:round;}
	
		.st1{opacity:0.82;fill:url(#SVGID_1_);stroke:#003D00;stroke-width:35;stroke-linecap:round;stroke-linejoin:round;enable-background:new    ;}
	.st2{fill:#8C9BA1;}
	.st3{fill:#A57C52;}
	.st4{opacity:0.12;fill:#534741;enable-background:new    ;}
	.st5{fill:#534741;}
	.st6{opacity:0.89;fill:#BCCBD4;enable-background:new    ;}
	.st7{opacity:0.22;}
	.st8{fill:#FFFFFF;}
	.st9{opacity:0.31;fill:#FFFFFF;enable-background:new    ;}
	.st10{fill:#B56650;}
	.st11{fill:#5C8678;}
	.st12{fill:#F29222;}
	.st13{fill:#009244;}
	.st14{enable-background:new    ;}
	.st15{fill:#003D00;}
	.st16{fill:#006938;}
</style>
<g id="Camada_2_1_">
	<g id="Capa_1">
		<circle class="st0" cx="528.6" cy="529.5" r="512"/>
		
			<radialGradient id="SVGID_1_" cx="624.0251" cy="551.7222" r="567" gradientTransform="matrix(0.9 0 0 0.9 -34.64 31.36)" gradientUnits="userSpaceOnUse">
			<stop  offset="0.18" style="stop-color:#E6E5E5"/>
			<stop  offset="0.53" style="stop-color:#E1E8DB"/>
			<stop  offset="1" style="stop-color:#DDEBD3"/>
		</radialGradient>
		<circle class="st1" cx="528.6" cy="529.5" r="512"/>
		<g id="LUNETA">
			
				<rect x="590.7" y="316.9" transform="matrix(0.5296 -0.8482 0.8482 0.5296 -107.3644 751.3779)" class="st2" width="66.2" height="311.3"/>
			<path class="st3" d="M841.9,608.1l-0.4,0.6c-11.1,17.7-30.8,25.3-44.1,17.1l-152.7-93.7l40.1-67.5l153,96.4
				C851.1,569.3,853,590.4,841.9,608.1z"/>
			<polygon class="st4" points="553.3,466 562.9,473 650.1,450.3 577.5,404 			"/>
			
				<ellipse transform="matrix(0.7071 -0.7071 0.7071 0.7071 -116.1167 385.4816)" class="st5" cx="407.3" cy="332.9" rx="199.2" ry="199.2"/>
			<circle class="st6" cx="404.8" cy="333.1" r="171.4"/>
			<g class="st7">
				<path class="st8" d="M282.1,323.3c-0.8-54.7,34.7-104.1,87.4-119.3s109.9,8.1,137.6,55.3c7.8,13.3,29,2.2,21.2-11.1
					c-31.8-54.3-95-82.5-156.6-69.4c-60.7,12.9-105.5,65.1-112.8,126c-0.7,5.9-0.9,11.8-0.8,17.8
					C258.4,337.9,282.3,338.7,282.1,323.3L282.1,323.3z"/>
			</g>
			<ellipse class="st9" cx="537.3" cy="297" rx="15.8" ry="15.8"/>
			<path class="st10" d="M646.7,530.2l38.2-64.2c1.3-2.2,0.7-5.1-1.3-6.6l-0.7-0.5c-2.2-1.6-5.3-1.2-7,1c-0.1,0.1-0.2,0.3-0.3,0.5
				L638,525c-1.4,2.4-0.6,5.4,1.8,6.8c0,0,0.1,0,0.1,0.1h0.1C642.4,533.3,645.3,532.5,646.7,530.2z"/>
			<path class="st11" d="M574.5,334.2c0,84.9-62.7,156.7-146.8,168.1c-41.1,5.8-83.6-4.6-117.9-27.6c-33.5-22.4-57.9-57.1-68.6-95.8
				c-22.4-82.2,19.6-168.4,98.2-201.3c38.6-16.2,82.4-17.1,121.9-3.5c38,13.1,70.3,40.5,90.5,75.1
				C566.7,275.1,574.5,304.4,574.5,334.2c0,5.9,9.1,5.9,9.1,0c-0.2-41.2-14.4-81.1-40.4-113.1c-25.3-31.3-61.6-53.2-100.9-61.7
				c-40.9-8.7-83.6-2.8-120.7,16.5c-35.5,18.5-64.1,49.4-80.3,85.9c-16.9,38.4-19.8,81.5-8.3,121.8c11,38.8,35.6,72.6,68.2,96.1
				c33.5,24.2,75.3,35.5,116.4,32.6c40.7-2.8,79.5-20,109.3-47.7c36.1-33.5,56.5-81.5,56.7-130.5
				C583.6,328.3,574.5,328.3,574.5,334.2z"/>
			<circle class="st12" cx="409.1" cy="292.9" r="41.4"/>
			<path class="st13" d="M407.8,349.1c-22.6,0.1-45-4.9-65.4-14.6c-19.1-9.3-34.7-22.4-45.2-38l-2.4-3.5l2.4-3.5
				c10.5-15.6,26.1-28.8,45.2-38c41.4-19.4,89.4-19.4,130.8,0c19.1,9.3,34.7,22.4,45.2,38l2.4,3.5l-2.4,3.5
				c-10.5,15.6-26.1,28.8-45.2,38C452.8,344.2,430.4,349.2,407.8,349.1z M316.4,292.9c8.8,11.7,21.1,21.6,35.9,28.8
				c35.2,16.5,75.8,16.5,111,0c14.8-7.2,27.1-17.1,35.9-28.8c-8.8-11.7-21.1-21.6-35.9-28.8c-35.2-16.5-75.8-16.5-111,0
				C337.5,271.3,325.2,281.2,316.4,292.9z"/>
			<g class="st14">
				<path class="st15" d="M323.1,374.3h-2.4l-7.6,26.2h-6.8l-7.6-26.2h-2.4v-3.7h11.3v3.7h-3.2l5.2,18.8c0.1,0.4,0.2,0.9,0.3,1.4
					c0.1,0.5,0.2,1,0.2,1.3c0.2-0.9,0.4-1.9,0.6-2.8l5.2-18.8h-3.1v-3.7h10.2V374.3z"/>
				<path class="st15" d="M333.4,374.3v22.5h2.9v3.7H325v-3.7h2.9v-22.5H325v-3.7h11.4v3.7H333.4z"/>
				<path class="st15" d="M362.4,390h-2.1v8.5c-1.1,0.8-2.4,1.4-3.8,1.9c-1.5,0.5-3,0.7-4.5,0.7c-3.9,0-6.9-1.3-9-4
					s-3.3-6.6-3.3-11.7s1.1-8.9,3.2-11.4c2.2-2.5,5.1-3.8,8.9-3.8c1.6,0,3.1,0.2,4.5,0.6c1.4,0.4,2.6,0.9,3.6,1.5v8H355v-6
					c-0.8-0.2-1.7-0.2-2.5-0.2c-1.6,0-2.9,0.3-3.9,1s-1.8,1.8-2.4,3.4c-0.6,1.6-0.8,3.9-0.8,6.7c0,4.3,0.6,7.4,1.9,9.2
					c1.3,1.8,3.1,2.8,5.6,2.8c0.8,0,1.6-0.1,2.3-0.3V390h-3.3v-3.7h10.5V390z"/>
				<path class="st15" d="M374,374.3v22.5h2.9v3.7h-11.4v-3.7h2.9v-22.5h-2.9v-3.7h11.4v3.7H374z"/>
				<path class="st15" d="M400.7,392.3v8.1h-20.5v-3.7h2.9v-22.5h-2.9v-3.7h12.2v3.7h-3.8v22.5h7.1v-4.5H400.7z"/>
				<path class="st15" d="M428.8,396.8v3.7h-11.1v-3.7h3.1l-1.5-5.3h-9.1l-1.5,5.3h2.9v3.7h-9.9v-3.7h2.4l7.6-26.2h7l7.6,26.2H428.8
					z M419,368.3l-3.9-3.3l-3.7,3.3h-3.6l5.6-6.9h3.7l5.5,6.9H419z M411.2,387.9h7l-2.6-8.7l-0.4-1.4l-0.5-2.3l-0.9,3.7L411.2,387.9
					z"/>
			</g>
			<g class="st14">
				<path class="st15" d="M458.1,374.3h-2.9v26.2h-7.1l-7.9-18.5c-0.7-1.9-1.4-4-2-6.3v21.1h2.8v3.7h-10.1v-3.7h2.9v-22.5h-2.9v-3.7
					h10.4l7.5,17.6c1,2.9,1.7,5.1,2.1,6.7v-20.5H448v-3.7h10.1V374.3z"/>
			</g>
			<g class="st14">
				<path class="st15" d="M481.6,397.2c-0.9,1.2-2.1,2.2-3.5,2.8c-1.4,0.6-3,1-4.8,1c-2.4,0-4.5-0.6-6.4-1.8c-1.8-1.2-3.2-3-4.2-5.3
					c-1-2.4-1.5-5.2-1.5-8.6c0-5.1,1.1-8.9,3.3-11.4c2.2-2.5,5.1-3.8,8.6-3.8c1.5,0,2.9,0.2,4.2,0.6s2.4,0.9,3.3,1.5v8.3h-4.8v-6.4
					c-0.5-0.1-1.1-0.2-1.9-0.2c-2.4,0-4.1,0.8-5.3,2.4s-1.7,4.5-1.7,8.5c0,4.1,0.6,7,1.9,8.8s3.1,2.7,5.5,2.7c1.1,0,2.1-0.2,3-0.5
					s1.7-0.9,2.6-1.6L481.6,397.2z"/>
				<path class="st15" d="M492.9,374.3v22.5h2.9v3.7h-11.4v-3.7h2.9v-22.5h-2.9v-3.7h11.4v3.7H492.9z"/>
			</g>
			<g class="st14">
				<path class="st15" d="M524.9,396.8v3.7h-11.1v-3.7h3.1l-1.5-5.3h-9.1l-1.5,5.3h2.9v3.7h-9.9v-3.7h2.4l7.6-26.2h7l7.6,26.2H524.9
					z M507.4,387.9h7l-2.6-8.7l-0.4-1.4l-0.5-2.3l-0.9,3.7L507.4,387.9z"/>
			</g>
			<g class="st14">
				<path class="st15" d="M315.7,433.5c1.2,1.3,1.8,3,1.8,5.2c0,2.9-1,5.2-3,6.7c-2,1.5-4.6,2.3-7.9,2.3c-3.4,0-6.6-0.6-9.6-1.9
					v-7.8h5.1v5.3c1.4,0.3,2.8,0.5,4.2,0.5c1.6,0,3-0.3,4-1c1-0.7,1.5-1.7,1.5-3.1c0-1.2-0.3-2.1-1-2.8c-0.7-0.6-1.8-1.3-3.5-1.9
					l-2.9-1.1c-2.2-0.8-3.9-1.9-5.1-3.3c-1.2-1.4-1.8-3.1-1.8-5.2c0-2.8,1-4.9,3-6.4c2-1.5,4.4-2.2,7.4-2.2c1.6,0,3.2,0.2,4.6,0.5
					c1.5,0.3,2.8,0.8,4,1.3v7.6h-5.2V421c-1.1-0.2-2-0.2-3-0.2c-1.6,0-2.9,0.3-3.8,1c-0.9,0.6-1.4,1.6-1.4,2.9c0,1.1,0.3,1.9,1,2.6
					c0.7,0.6,1.8,1.3,3.3,1.9l2.7,1.1C312.6,431.1,314.4,432.2,315.7,433.5z"/>
				<path class="st15" d="M348.5,443.5v3.7h-11.9v-3.7h3.3l-1.6-5.3h-9.8l-1.6,5.3h3.1v3.7h-10.6v-3.7h2.6l8.2-26.2h7.5l8.2,26.2
					H348.5z M329.7,434.5h7.5l-2.8-8.7l-0.4-1.4l-0.6-2.3l-1,3.7L329.7,434.5z"/>
				<path class="st15" d="M379.9,421h-3.1v26.2h-7.6l-8.5-18.5c-0.8-1.9-1.5-4-2.2-6.3v21.1h3v3.7h-10.8v-3.7h3.1V421h-3.1v-3.7
					h11.1l8,17.6c1.1,2.9,1.9,5.1,2.3,6.7V421h-3v-3.7h10.8V421z"/>
				<path class="st15" d="M392.4,421v22.5h3.1v3.7h-12.2v-3.7h3.1V421h-3.1v-3.7h12.2v3.7H392.4z"/>
			</g>
			<g class="st14">
				<path class="st15" d="M424.2,417.3v8.2h-5V421h-5v22.5h4.2v3.7H404v-3.7h4.2V421h-5.1v4.5h-5v-8.2H424.2z"/>
			</g>
			<g class="st14">
				<path class="st15" d="M452,443.5v3.7h-11.9v-3.7h3.3l-1.6-5.3h-9.8l-1.6,5.3h3.1v3.7H423v-3.7h2.6l8.2-26.2h7.5l8.2,26.2H452z
					 M433.2,434.5h7.5l-2.8-8.7l-0.4-1.4l-0.6-2.3l-1,3.7L433.2,434.5z M444.4,408.3c0.2,0.2,0.3,0.4,0.3,0.6c0,0.3-0.2,0.7-0.6,1
					l-5,5h-3.6l3.7-6.9h4.6C444,408.1,444.2,408.2,444.4,408.3z"/>
				<path class="st15" d="M480.7,443.5v3.7c-0.9,0.3-1.9,0.4-3,0.4c-1.5,0-2.7-0.3-3.7-0.9c-1-0.6-1.8-1.7-2.5-3.2l-4.7-8.9H463v8.9
					h2.9v3.7h-11.8v-3.7h3.1V421h-3.1v-3.7h13.1c3.4,0,6,0.7,8,2.1c2,1.4,3,3.5,3,6.4c0,2-0.5,3.7-1.5,5c-1,1.3-2.3,2.3-4.1,2.9
					l4.6,8.1c0.4,0.6,0.7,1,1.1,1.3c0.4,0.3,0.8,0.4,1.4,0.4H480.7z M463,430.9h4.1c1.7,0,3-0.4,3.8-1.3c0.8-0.9,1.3-2.1,1.3-3.7
					c0-1.5-0.4-2.7-1.3-3.6c-0.9-0.9-2.2-1.3-4-1.3H463V430.9z"/>
				<path class="st15" d="M491.6,421v22.5h3.1v3.7h-12.2v-3.7h3.1V421h-3.1v-3.7h12.2v3.7H491.6z"/>
			</g>
			<g class="st14">
				<path class="st15" d="M525.8,443.5v3.7h-11.9v-3.7h3.3l-1.6-5.3h-9.8l-1.6,5.3h3.1v3.7h-10.6v-3.7h2.6l8.2-26.2h7.5l8.2,26.2
					H525.8z M507,434.5h7.5l-2.8-8.7l-0.4-1.4l-0.6-2.3l-1,3.7L507,434.5z"/>
			</g>
		</g>
		<g class="st14">
			<path class="st15" d="M234.8,736c5.4,6.6,8.1,15.4,8.1,26.4c0,15.3-4.5,26.9-13.5,34.9s-21.6,12-37.7,12
				c-15.7,0-31.1-3.1-46.2-9.4v-40.3h28.4v24.5c4.9,0.9,10.2,1.4,16,1.4c6.5,0,11.7-1.4,15.5-4.2s5.8-7.3,5.8-13.4
				c0-5.2-1.4-9.2-4.3-12.1c-2.9-2.9-7.8-5.8-14.8-8.7l-12.6-5.5c-21.2-8.1-31.7-22.6-31.7-43.5c0-9.8,2.2-18.1,6.5-24.9
				c4.4-6.9,10.2-12,17.6-15.3c7.4-3.4,15.6-5,24.6-5c14.6,0,28.5,3.1,41.5,9.2V701h-28.6v-23.8c-3.6-0.5-7.1-0.7-10.7-0.7
				c-13,0-19.5,5.7-19.5,17.2c0,4.7,1.4,8.6,4.1,11.6c2.7,3,7.3,5.9,13.6,8.8l11.8,5C220.7,723.7,229.4,729.4,234.8,736z"/>
			<path class="st15" d="M307,677.4v107.5h13.8v21.7h-59.9v-21.7h13.3V677.4h-13.3v-21.7h59.9v21.7H307z"/>
		</g>
		<g class="st14">
			<path class="st15" d="M430.3,736c5.4,6.6,8.1,15.4,8.1,26.4c0,15.3-4.5,26.9-13.5,34.9s-21.6,12-37.7,12
				c-15.7,0-31.1-3.1-46.2-9.4v-40.3h28.4v24.5c4.9,0.9,10.2,1.4,16,1.4c6.5,0,11.7-1.4,15.5-4.2s5.8-7.3,5.8-13.4
				c0-5.2-1.4-9.2-4.3-12.1c-2.9-2.9-7.8-5.8-14.8-8.7l-12.6-5.5c-21.2-8.1-31.7-22.6-31.7-43.5c0-9.8,2.2-18.1,6.5-24.9
				c4.4-6.9,10.2-12,17.6-15.3c7.4-3.4,15.6-5,24.6-5c14.6,0,28.5,3.1,41.5,9.2V701h-28.6v-23.8c-3.6-0.5-7.1-0.7-10.7-0.7
				c-13,0-19.5,5.7-19.5,17.2c0,4.7,1.4,8.6,4.1,11.6s7.3,5.9,13.6,8.8l11.8,5C416.2,723.7,424.9,729.4,430.3,736z"/>
		</g>
		<g class="st14">
			<path class="st15" d="M581.5,677.4H570l-35.3,129.2h-40.8l-35.7-129.2H447v-21.7h59.5v21.7h-14.2l22.2,86.2
				c1.2,5.3,2.1,10.9,2.9,16.7c0.6-4.4,1.7-10.1,3.3-16.9l21.5-86h-14v-21.7h53.3V677.4z"/>
			<path class="st15" d="M642.3,677.4v107.5h13.8v21.7h-59.9v-21.7h13.3V677.4h-13.3v-21.7h59.9v21.7H642.3z"/>
			<path class="st15" d="M765.6,736c5.4,6.6,8.1,15.4,8.1,26.4c0,15.3-4.5,26.9-13.5,34.9s-21.6,12-37.7,12
				c-15.7,0-31.1-3.1-46.2-9.4v-40.3h28.4v24.5c4.9,0.9,10.2,1.4,16,1.4c6.5,0,11.7-1.4,15.5-4.2s5.8-7.3,5.8-13.4
				c0-5.2-1.4-9.2-4.3-12.1c-2.9-2.9-7.8-5.8-14.8-8.7l-12.6-5.5c-21.2-8.1-31.7-22.6-31.7-43.5c0-9.8,2.2-18.1,6.5-24.9
				c4.4-6.9,10.2-12,17.6-15.3c7.4-3.4,15.6-5,24.6-5c14.6,0,28.5,3.1,41.5,9.2V701h-28.6v-23.8c-3.6-0.5-7.1-0.7-10.7-0.7
				c-13,0-19.5,5.7-19.5,17.2c0,4.7,1.4,8.6,4.1,11.6c2.7,3,7.3,5.9,13.6,8.8l11.8,5C751.5,723.7,760.2,729.4,765.6,736z"/>
		</g>
		<g class="st14">
			<path class="st15" d="M920.3,784.9v21.7h-58.1v-21.7H876l-6-22.2h-40.8l-6,22.2H836v21.7h-50.8v-21.7h11.3L832,655.6h41.5
				l35.7,129.2h11.1V784.9z M844.4,706.9l-9.5,34.3h29.3l-9.5-34.3c-1.5-6.3-3.2-13.7-5.1-22.4C848.4,690.6,846.7,698,844.4,706.9z"
				/>
		</g>
		<g class="st14">
			<path class="st16" d="M243.1,738.5c5.4,6.6,8.1,15.4,8.1,26.4c0,15.3-4.5,26.9-13.5,34.9s-21.6,12-37.7,12
				c-15.7,0-31.1-3.1-46.2-9.4v-40.3h28.4v24.5c4.9,0.9,10.2,1.4,16,1.4c6.5,0,11.7-1.4,15.5-4.2s5.8-7.3,5.8-13.4
				c0-5.2-1.4-9.2-4.3-12.1c-2.9-2.9-7.8-5.8-14.8-8.7l-12.6-5.5c-21.2-8.1-31.7-22.6-31.7-43.5c0-9.8,2.2-18.1,6.5-24.9
				c4.4-6.9,10.2-12,17.6-15.3c7.4-3.4,15.6-5,24.6-5c14.6,0,28.5,3.1,41.5,9.2v38.9h-28.6v-23.8c-3.6-0.5-7.1-0.7-10.7-0.7
				c-13,0-19.5,5.7-19.5,17.2c0,4.7,1.4,8.6,4.1,11.6c2.7,3,7.3,5.9,13.6,8.8l11.8,5C229,726.2,237.7,731.8,243.1,738.5z"/>
			<path class="st16" d="M315.3,679.8v107.5h13.8V809h-59.9v-21.7h13.3V679.8h-13.3v-21.7h59.9v21.7H315.3z"/>
		</g>
		<g class="st14">
			<path class="st16" d="M438.6,738.5c5.4,6.6,8.1,15.4,8.1,26.4c0,15.3-4.5,26.9-13.5,34.9s-21.6,12-37.7,12
				c-15.7,0-31.1-3.1-46.2-9.4v-40.3h28.4v24.5c4.9,0.9,10.2,1.4,16,1.4c6.5,0,11.7-1.4,15.5-4.2s5.8-7.3,5.8-13.4
				c0-5.2-1.4-9.2-4.3-12.1c-2.9-2.9-7.8-5.8-14.8-8.7l-12.6-5.5c-21.2-8.1-31.7-22.6-31.7-43.5c0-9.8,2.2-18.1,6.5-24.9
				c4.4-6.9,10.2-12,17.6-15.3c7.4-3.4,15.6-5,24.6-5c14.6,0,28.5,3.1,41.5,9.2v38.9h-28.6v-23.8c-3.6-0.5-7.1-0.7-10.7-0.7
				c-13,0-19.5,5.7-19.5,17.2c0,4.7,1.4,8.6,4.1,11.6s7.3,5.9,13.6,8.8l11.8,5C424.5,726.2,433.2,731.8,438.6,738.5z"/>
		</g>
		<g class="st14">
			<path class="st16" d="M589.8,679.8h-11.5L543,809h-40.8l-35.7-129.2h-11.1v-21.7h59.5v21.7h-14.2l22.2,86.2
				c1.2,5.3,2.1,10.9,2.9,16.7c0.6-4.4,1.7-10.1,3.3-16.9l21.5-86h-14v-21.7h53.3v21.7H589.8z"/>
			<path class="st16" d="M650.6,679.8v107.5h13.8V809h-59.9v-21.7h13.3V679.8h-13.3v-21.7h59.9v21.7H650.6z"/>
			<path class="st16" d="M773.9,738.5c5.4,6.6,8.1,15.4,8.1,26.4c0,15.3-4.5,26.9-13.5,34.9s-21.6,12-37.7,12
				c-15.7,0-31.1-3.1-46.2-9.4v-40.3H713v24.5c4.9,0.9,10.2,1.4,16,1.4c6.5,0,11.7-1.4,15.5-4.2s5.8-7.3,5.8-13.4
				c0-5.2-1.4-9.2-4.3-12.1c-2.9-2.9-7.8-5.8-14.8-8.7l-12.6-5.5c-21.2-8.1-31.7-22.6-31.7-43.5c0-9.8,2.2-18.1,6.5-24.9
				c4.4-6.9,10.2-12,17.6-15.3c7.4-3.4,15.6-5,24.6-5c14.6,0,28.5,3.1,41.5,9.2v38.9h-28.6v-23.8c-3.6-0.5-7.1-0.7-10.7-0.7
				c-13,0-19.5,5.7-19.5,17.2c0,4.7,1.4,8.6,4.1,11.6c2.7,3,7.3,5.9,13.6,8.8l11.8,5C759.8,726.2,768.5,731.8,773.9,738.5z"/>
		</g>
		<g class="st14">
			<path class="st16" d="M928.6,787.3V809h-58.1v-21.7h13.8l-6-22.2h-40.8l-6,22.2h12.9V809h-50.8v-21.7h11.3l35.5-129.2h41.5
				l35.7,129.2H928.6z M852.7,709.3l-9.5,34.3h29.3l-9.5-34.3c-1.5-6.3-3.2-13.7-5.1-22.4C856.7,693,855,700.5,852.7,709.3z"/>
		</g>
	</g>
</g>
</svg>
