<svg xmlns="http://www.w3.org/2000/svg" xmlns:xlink="http://www.w3.org/1999/xlink" viewBox="0 0 1059 1059"><defs><style>.cls-1,.cls-10,.cls-9{fill:#fff;}.cls-1{stroke:#002a02;}.cls-1,.cls-2{stroke-linecap:round;stroke-linejoin:round;stroke-width:35px;}.cls-2{stroke:#003d00;opacity:0.82;fill:url(#Gradiente_sem_nome_2);}.cls-3{fill:#8c9ba1;}.cls-4{fill:#a57c52;}.cls-5,.cls-6{fill:#534741;}.cls-5{opacity:0.12;}.cls-7{fill:#bccbd4;opacity:0.89;}.cls-8{opacity:0.22;}.cls-10{opacity:0.31;}.cls-11{fill:#b56650;}.cls-12{fill:#5c8678;}.cls-13{fill:#f29222;}.cls-14{fill:#009244;}.cls-15{font-size:45.24px;font-family:Muriza-SemiBold, Muriza;font-weight:600;}.cls-15,.cls-22{fill:#003d00;}.cls-16{letter-spacing:0em;}.cls-17{letter-spacing:0em;}.cls-18{letter-spacing:-0.02em;}.cls-19{letter-spacing:-0.04em;}.cls-20{letter-spacing:0em;}.cls-21{letter-spacing:-0.02em;}.cls-22,.cls-26{font-size:228.76px;font-family:Muriza-Bold, Muriza;font-weight:700;letter-spacing:0.02em;}.cls-23{letter-spacing:0em;}.cls-24{letter-spacing:0.03em;}.cls-25{letter-spacing:0em;}.cls-26{fill:#006938;}</style><radialGradient id="Gradiente_sem_nome_2" cx="529.5" cy="529.5" r="567" gradientTransform="translate(51.36 51.36) scale(0.9)" gradientUnits="userSpaceOnUse"><stop offset="0.18" stop-color="#e6e5e5"/><stop offset="0.53" stop-color="#e1e8db"/><stop offset="1" stop-color="#ddebd3"/></radialGradient></defs><g id="Camada_2" data-name="Camada 2"><g id="Capa_1" data-name="Capa 1"><circle class="cls-1" cx="529.5" cy="529.5" r="512"/><circle class="cls-2" cx="529.5" cy="529.5" r="512"/><g id="LUNETA"><rect class="cls-3" x="591.66" y="316.77" width="66.2" height="311.26" transform="translate(-106.82 752.19) rotate(-58.02)"/><path class="cls-4" d="M842.82,608.09l-.4.64c-11.06,17.72-30.8,25.35-44.08,17.06L645.65,532.07l40.12-67.49,153,96.42C852.07,569.29,853.88,590.37,842.82,608.09Z"/><polygon class="cls-5" points="554.24 465.95 563.87 472.96 651.03 450.33 578.41 403.99 554.24 465.95"/><circle class="cls-6" cx="408.22" cy="332.95" r="199.25" transform="translate(-115.87 386.17) rotate(-45)"/><circle class="cls-7" cx="405.74" cy="333.07" r="171.41"/><g class="cls-8"><path class="cls-9" d="M282.6,323.26C281.76,268.6,317.28,219.15,370,204s109.92,8.07,137.59,55.28c7.8,13.31,29,2.19,21.2-11.14-31.85-54.34-95-82.48-156.58-69.37-60.69,12.91-105.46,65.07-112.76,126a133.71,133.71,0,0,0-.79,17.78c.24,15.38,24.18,16.19,23.94.7Z"/></g><circle class="cls-10" cx="537.11" cy="298.84" r="15.77" transform="matrix(1, -0.02, 0.02, 1, -4.88, 8.95)"/><path class="cls-11" d="M647.67,529.83l38.18-64.2a5,5,0,0,0-1.32-6.58l-.67-.49a5,5,0,0,0-7.3,1.5L639,524.71a5,5,0,0,0,1.89,6.89l.09,0A5,5,0,0,0,647.67,529.83Z"/><path class="cls-12" d="M575.43,334.17A169.7,169.7,0,0,1,428.64,502.31c-41.11,5.83-83.56-4.6-117.92-27.64-33.46-22.44-57.88-57.06-68.58-95.8a169.72,169.72,0,0,1,98.2-201.26c38.59-16.16,82.39-17.14,121.85-3.47,38,13.15,70.26,40.51,90.48,75.12a169.73,169.73,0,0,1,22.76,84.91c0,5.88,9.14,5.89,9.12,0a180.71,180.71,0,0,0-40.36-113.09c-25.3-31.32-61.57-53.21-100.85-61.69A180.35,180.35,0,0,0,322.6,175.94c-35.47,18.48-64.07,49.41-80.26,85.91A180.37,180.37,0,0,0,234,383.66c11,38.75,35.62,72.65,68.19,96.15,33.48,24.16,75.31,35.47,116.39,32.64,40.72-2.8,79.45-20,109.32-47.74,36.08-33.47,56.47-81.46,56.65-130.54C584.57,328.29,575.45,328.29,575.43,334.17Z"/><circle class="cls-13" cx="410.02" cy="292.88" r="41.41"/><path class="cls-14" d="M408.72,349.07a150.4,150.4,0,0,1-65.4-14.58c-19.08-9.26-34.72-22.41-45.23-38l-2.37-3.52,2.37-3.53c10.51-15.62,26.15-28.77,45.23-38a154.09,154.09,0,0,1,130.81,0c19.07,9.26,34.71,22.41,45.22,38l2.37,3.53-2.37,3.52c-10.51,15.62-26.15,28.77-45.22,38A150.44,150.44,0,0,1,408.72,349.07Zm-91.4-56.13c8.82,11.72,21.15,21.62,35.9,28.78a130.81,130.81,0,0,0,111,0c14.75-7.16,27.07-17.06,35.9-28.78-8.83-11.73-21.15-21.62-35.9-28.78a130.81,130.81,0,0,0-111,0C338.47,271.32,326.14,281.21,317.32,292.94Z"/><text class="cls-15" transform="translate(296.9 400.48)">VIGILÂ<tspan class="cls-16" x="133.04" y="0">N</tspan><tspan class="cls-17" x="163.62" y="0">CI</tspan><tspan class="cls-18" x="201.57" y="0">A</tspan></text><text class="cls-15" transform="translate(296.08 447.17) scale(1.07 1)">SANI<tspan class="cls-19" x="95.54" y="0">T</tspan><tspan class="cls-20" x="119.24" y="0">ÁRI</tspan><tspan class="cls-21" x="188.18" y="0">A</tspan></text></g><text class="cls-22" transform="translate(139.31 806.61) scale(0.97 1)">SI<tspan class="cls-23" x="201.53" y="0">S</tspan><tspan class="cls-24" x="316.83" y="0">VIS</tspan><tspan class="cls-25" x="665.45" y="0">A</tspan></text><text class="cls-26" transform="translate(147.6 809.05) scale(0.97 1)">SI<tspan class="cls-23" x="201.53" y="0">S</tspan><tspan class="cls-24" x="316.83" y="0">VIS</tspan><tspan class="cls-25" x="665.45" y="0">A</tspan></text></g></g></svg>