<svg xmlns="http://www.w3.org/2000/svg" xmlns:xlink="http://www.w3.org/1999/xlink" viewBox="0 0 1169 1169"><defs><style>.cls-1,.cls-10,.cls-9{fill:#fff;}.cls-1,.cls-2{stroke:#002a02;stroke-linecap:round;stroke-linejoin:round;stroke-width:35px;}.cls-2{opacity:0.82;fill:url(#Gradiente_sem_nome_2);}.cls-3{fill:#8c9ba1;}.cls-4{fill:#a57c52;}.cls-5,.cls-6{fill:#534741;}.cls-5{opacity:0.12;}.cls-7{fill:#bccbd4;opacity:0.89;}.cls-8{opacity:0.22;}.cls-10{opacity:0.31;}.cls-11{fill:#b56650;}.cls-12{fill:#5c8678;}.cls-13{fill:#f29222;}.cls-14{fill:#009244;}.cls-15{fill:#003d00;}.cls-16{fill:#006938;}</style><radialGradient id="Gradiente_sem_nome_2" cx="1540.66" cy="428.62" r="5.76" gradientUnits="userSpaceOnUse"><stop offset="0.18" stop-color="#e6e5e5"/><stop offset="0.53" stop-color="#e1e8db"/><stop offset="1" stop-color="#ddebd3"/></radialGradient></defs><g id="Camada_2" data-name="Camada 2"><g id="Capa_1" data-name="Capa 1"><circle class="cls-1" cx="584.5" cy="584.5" r="567"/><circle class="cls-2" cx="584.5" cy="584.5" r="567"/><rect class="cls-3" x="653.33" y="345.31" width="73.31" height="344.69" transform="translate(-114.52 828.81) rotate(-58.02)"/><path class="cls-4" d="M931.48,667.92l-.45.72c-12.25,19.61-34.1,28.07-48.81,18.88L713.12,583.73,757.56,509,927,615.77C941.73,625,943.72,648.3,931.48,667.92Z"/><polygon class="cls-5" points="611.89 510.51 622.56 518.28 719.09 493.22 638.66 441.9 611.89 510.51"/><circle class="cls-6" cx="450.19" cy="363.23" r="220.66" transform="translate(-124.98 424.72) rotate(-45)"/><circle class="cls-7" cx="447.44" cy="363.36" r="189.82"/><g class="cls-8"><path class="cls-9" d="M311.08,352.5c-.93-60.53,38.4-115.3,96.79-132.1s121.73,8.95,152.37,61.22c8.64,14.74,32.13,2.43,23.48-12.33C548.44,209.11,478.5,178,410.31,192.46,343.11,206.77,293.52,264.53,285.44,332a147,147,0,0,0-.87,19.68c.26,17,26.78,17.93,26.51.78Z"/></g><circle class="cls-10" cx="592.93" cy="325.46" r="17.47" transform="translate(-5.32 9.88) rotate(-0.95)"/><path class="cls-11" d="M715.37,581.26l42.28-71.1a5.53,5.53,0,0,0-1.47-7.28l-.74-.55a5.53,5.53,0,0,0-8.08,1.66l-41.63,71.6a5.54,5.54,0,0,0,2.09,7.63l.1,0A5.55,5.55,0,0,0,715.37,581.26Z"/><path class="cls-12" d="M635.36,364.58A189.25,189.25,0,0,1,588.5,488.74c-29.75,33.87-71.15,55.73-115.69,62-45.54,6.46-92.54-5.09-130.59-30.61-37.06-24.85-64.1-63.18-76-106.09-12.3-44.49-7.21-93,13.52-134.17A189.3,189.3,0,0,1,375,191.2c42.74-17.9,91.24-19,134.94-3.84,42.07,14.57,77.81,44.86,100.2,83.18a188,188,0,0,1,25.2,94c0,6.52,10.12,6.52,10.1,0a200.12,200.12,0,0,0-44.69-125.24c-28-34.68-68.18-58.93-111.69-68.32a199.69,199.69,0,0,0-133.7,18.34c-39.28,20.46-71,54.71-88.89,95.13a199.76,199.76,0,0,0-9.23,134.9c12.19,42.91,39.45,80.45,75.51,106.47,37.07,26.75,83.4,39.29,128.89,36.16,45.1-3.11,88-22.19,121.07-52.88,40-37.06,62.53-90.2,62.73-144.56C645.48,358.07,635.39,358.07,635.36,364.58Z"/><circle class="cls-13" cx="452.19" cy="318.85" r="45.86"/><path class="cls-14" d="M450.75,381.08c-25.64,0-50.68-5.58-72.43-16.14-21.13-10.26-38.45-24.82-50.09-42.12l-2.62-3.9,2.62-3.9c11.64-17.3,29-31.87,50.09-42.12,21.75-10.56,46.79-16.14,72.43-16.14s50.68,5.58,72.43,16.14c21.13,10.25,38.45,24.82,50.08,42.12l2.63,3.9-2.63,3.9c-11.63,17.3-29,31.86-50.08,42.12C501.43,375.5,476.38,381.08,450.75,381.08ZM349.52,318.92c9.78,13,23.43,23.94,39.76,31.87a144.83,144.83,0,0,0,122.93,0c16.34-7.93,30-18.89,39.77-31.87-9.78-13-23.43-23.95-39.77-31.88a144.92,144.92,0,0,0-122.93,0C373,295,359.3,305.93,349.52,318.92Z"/><path class="cls-15" d="M356.92,409h-2.71l-8.36,29h-7.52l-8.41-29h-2.71V405h12.53V409h-3.56L342,429.84c.13.47.26,1,.38,1.61s.2,1.07.27,1.4c.2-1,.42-2.06.65-3.06L349,409h-3.4V405h11.32Z"/><path class="cls-15" d="M368.39,409V434h3.26V438H359V434h3.26V409H359V405h12.63V409Z"/><path class="cls-15" d="M400.5,426.39h-2.3v9.41a14.43,14.43,0,0,1-4.24,2.06,16.79,16.79,0,0,1-5,.75,12.18,12.18,0,0,1-10-4.46q-3.6-4.45-3.61-12.92t3.59-12.65a12.25,12.25,0,0,1,9.84-4.19,18.48,18.48,0,0,1,5,.66,13.2,13.2,0,0,1,3.94,1.7v8.82h-5.41V409a16.46,16.46,0,0,0-2.76-.25,7.93,7.93,0,0,0-4.33,1.1,7.05,7.05,0,0,0-2.66,3.81,23.88,23.88,0,0,0-.92,7.47q0,7.16,2.13,10.22a7.06,7.06,0,0,0,6.18,3.05,11,11,0,0,0,2.56-.3v-7.66h-3.66v-4.06H400.5Z"/><path class="cls-15" d="M413.28,409V434h3.25V438H403.91V434h3.25V409h-3.25V405h12.62V409Z"/><path class="cls-15" d="M442.88,429v9H420.19V434h3.26V409h-3.26V405h13.53V409h-4.16V434h7.91v-5Z"/><path class="cls-15" d="M473.94,434V438H461.67V434h3.46l-1.66-5.86H453.35L451.7,434h3.21V438h-11V434h2.65l8.47-29h7.76l8.47,29Zm-10.82-31.56-4.31-3.71-4.1,3.71h-4l6.16-7.66H461l6.11,7.66ZM454.51,424h7.76l-2.85-9.62-.41-1.6-.6-2.5-1.05,4.1Z"/><path class="cls-15" d="M506.46,409h-3.21v29h-7.87l-8.76-20.44c-.8-2.1-1.56-4.43-2.26-7V434h3.06V438H476.2V434h3.25V409H476.2V405h11.52L496,424.38q1.71,4.86,2.36,7.37V409h-3.11V405h11.23Z"/><path class="cls-15" d="M532.5,434.4a10,10,0,0,1-3.9,3.13,13.44,13.44,0,0,1-12.3-.9,12.74,12.74,0,0,1-4.69-5.91,24.63,24.63,0,0,1-1.65-9.54q0-8.42,3.61-12.6a12,12,0,0,1,9.57-4.19,15.71,15.71,0,0,1,4.61.66,13.45,13.45,0,0,1,3.7,1.7V416h-5.36V408.9a9.58,9.58,0,0,0-2.1-.2,6.69,6.69,0,0,0-5.84,2.71c-1.28,1.8-1.93,4.94-1.93,9.42s.7,7.79,2.11,9.76a7,7,0,0,0,6.06,3,8.53,8.53,0,0,0,3.33-.6,11.73,11.73,0,0,0,2.88-1.8Z"/><path class="cls-15" d="M545,409V434h3.25V438H535.66V434h3.26V409h-3.26V405h12.62V409Z"/><path class="cls-15" d="M580.45,434V438H568.17V434h3.46L570,428.09H559.86L558.2,434h3.21V438h-11V434h2.65l8.47-29h7.77l8.46,29ZM561,424h7.76l-2.85-9.62-.4-1.6-.6-2.5-1.06,4.1Z"/><path class="cls-15" d="M348.7,474.59a8.08,8.08,0,0,1,2,5.76,8.78,8.78,0,0,1-3.27,7.39c-2.18,1.68-5.11,2.53-8.79,2.53A27.74,27.74,0,0,1,328,488.16V479.5h5.69v5.86a21.81,21.81,0,0,0,4.6.5,7.88,7.88,0,0,0,4.4-1.1,3.86,3.86,0,0,0,1.66-3.46,3.92,3.92,0,0,0-1.15-3.06,12.32,12.32,0,0,0-3.83-2.05l-3.17-1.25a14.2,14.2,0,0,1-5.62-3.61,9.19,9.19,0,0,1,1.23-12.8,13.36,13.36,0,0,1,8.2-2.43,24.61,24.61,0,0,1,5.14.53,18.94,18.94,0,0,1,4.4,1.47v8.42h-5.74v-5.76a22.89,22.89,0,0,0-3.27-.25,7.22,7.22,0,0,0-4.18,1.05,3.71,3.71,0,0,0-1.5,3.26,3.8,3.8,0,0,0,1.1,2.83,11.12,11.12,0,0,0,3.62,2.08l2.95,1.2A15.55,15.55,0,0,1,348.7,474.59Z"/><path class="cls-15" d="M385.06,485.66v4H371.93v-4h3.7l-1.77-5.86H363l-1.77,5.86h3.43v4H353v-4h2.84l9.05-29h8.31l9.06,29Zm-20.79-9.92h8.3l-3.05-9.62-.43-1.6-.64-2.51-1.13,4.11Z"/><path class="cls-15" d="M419.84,460.71h-3.43v29H408l-9.37-20.43c-.86-2.11-1.66-4.43-2.42-7v23.35h3.27v4h-12v-4H391v-25h-3.48v-4.06H399.8l8.84,19.44q1.82,4.86,2.52,7.36V460.71h-3.33v-4.06h12Z"/><path class="cls-15" d="M433.72,460.71v25h3.48v4H423.7v-4h3.48v-25H423.7v-4.06h13.5v4.06Z"/><path class="cls-15" d="M468.87,456.65v9.12H463.3v-5.06h-5.57v25h4.66v4H446.52v-4h4.67v-25h-5.63v5H440v-9.07Z"/><path class="cls-15" d="M499.69,485.66v4H486.56v-4h3.69l-1.76-5.86H477.66l-1.77,5.86h3.43v4H467.59v-4h2.84l9.05-29h8.31l9.06,29Zm-20.8-9.92h8.31l-3.05-9.62-.43-1.6-.65-2.51L482,466.12Zm12.38-29a.83.83,0,0,1,.32.67,1.66,1.66,0,0,1-.69,1.16l-5.58,5.56h-4l4.13-7.67h5.09A1.08,1.08,0,0,1,491.27,446.71Z"/><path class="cls-15" d="M531.41,485.66v4a11.34,11.34,0,0,1-3.27.46,7.4,7.4,0,0,1-4-1,8.27,8.27,0,0,1-2.82-3.5L516,475.79h-4.18v9.87H515v4H501.94v-4h3.48v-25h-3.48v-4.06h14.52q5.56,0,8.87,2.33c2.2,1.55,3.29,3.92,3.29,7.09a9.19,9.19,0,0,1-1.6,5.56,9.31,9.31,0,0,1-4.56,3.26l5.09,8.91a4.5,4.5,0,0,0,1.21,1.43,2.58,2.58,0,0,0,1.53.43Zm-19.56-13.93h4.56a5.54,5.54,0,0,0,4.23-1.48,5.77,5.77,0,0,0,1.39-4.13,5.35,5.35,0,0,0-1.44-4,6.13,6.13,0,0,0-4.45-1.43h-4.29Z"/><path class="cls-15" d="M543.47,460.71v25H547v4h-13.5v-4h3.48v-25h-3.48v-4.06H547v4.06Z"/><path class="cls-15" d="M581.36,485.66v4H568.23v-4h3.69l-1.76-5.86H559.33l-1.77,5.86H561v4H549.26v-4h2.84l9-29h8.31l9.06,29Zm-20.8-9.92h8.31l-3-9.62-.43-1.6-.64-2.51-1.13,4.11Z"/><path class="cls-15" d="M255.43,809.61q9.24,11,9.25,29.26,0,25.33-15.46,38.64t-43.06,13.3a140.05,140.05,0,0,1-52.7-10.39V835.83h32.43v27.11a102.39,102.39,0,0,0,18.24,1.52q11.15,0,17.73-4.69T228.45,845q0-8.61-4.94-13.42t-16.85-9.63l-14.44-6.08Q156,802.4,156,767.69q0-16.22,7.47-27.62a45.41,45.41,0,0,1,20.14-17,69.16,69.16,0,0,1,28.12-5.57,113.21,113.21,0,0,1,47.37,10.13v43.07H226.42V744.38a97.19,97.19,0,0,0-12.16-.76q-22.29,0-22.29,19,0,7.86,4.69,12.79t15.58,9.76l13.42,5.57Q246.18,798.6,255.43,809.61Z"/><path class="cls-15" d="M332.82,744.63V863.7h15.71v24.07h-68.4V863.7h15.2V744.63h-15.2V720.57h68.4v24.06Z"/><path class="cls-15" d="M493.43,830.77H482.54v45.6A71.64,71.64,0,0,1,460,887.26a93,93,0,0,1-26.34,3.8q-33.19,0-51.81-22.67t-18.62-65.74q0-43.06,18.37-64.1t50.54-21a104.11,104.11,0,0,1,27,3.42q12.78,3.42,21.15,9.24v46.87H447.58V743.62a66.3,66.3,0,0,0-10.39-.76q-11.91,0-19.5,4.81t-11.78,17.86q-4.19,13.05-4.18,36.86,0,35,9.24,49.15t28.76,14.19q2.77,0,8.36-.51V830.77H433.14V807h60.29Z"/><path class="cls-15" d="M652.28,744.63H639.1L598.82,887.77H552.21L511.42,744.63H498.76V720.57h67.89v24.06H550.44l25.33,95.51q2,8.86,3.29,18.49,1-7.33,3.8-18.74l24.58-95.26h-16V720.57h60.8Z"/><path class="cls-15" d="M714.09,744.63V863.7h15.7v24.07h-68.4V863.7h15.2V744.63h-15.2V720.57h68.4v24.06Z"/><path class="cls-15" d="M847.21,809.61q9.24,11,9.25,29.26,0,25.33-15.46,38.64t-43.06,13.3a140,140,0,0,1-52.69-10.39V835.83h32.42v27.11a102.55,102.55,0,0,0,18.24,1.52q11.15,0,17.73-4.69T820.23,845q0-8.61-4.94-13.42t-16.85-9.63L784,815.82q-36.22-13.43-36.22-48.13,0-16.22,7.47-27.62a45.41,45.41,0,0,1,20.14-17,69.16,69.16,0,0,1,28.12-5.57,113.21,113.21,0,0,1,47.37,10.13v43.07H818.21V744.38a97.47,97.47,0,0,0-12.17-.76q-22.29,0-22.29,19,0,7.86,4.69,12.79T804,785.17l13.42,5.57Q838,798.6,847.21,809.61Z"/><path class="cls-15" d="M1020.11,863.7v24.07H953.74V863.7h15.7l-6.84-24.57H916l-6.84,24.57h14.69v24.07h-58V863.7h12.92l40.53-143.13h47.38l40.78,143.13Zm-86.64-86.39-10.89,38H956l-10.9-38q-2.54-10.38-5.82-24.82Q937.26,762.62,933.47,777.31Z"/><path class="cls-16" d="M264.91,812.32q9.24,11,9.24,29.26,0,25.33-15.45,38.63t-43.07,13.3a140.23,140.23,0,0,1-52.69-10.38V838.54h32.43v27.11a102.39,102.39,0,0,0,18.24,1.52q11.14,0,17.73-4.69t6.59-14.82q0-8.61-4.94-13.43t-16.85-9.62l-14.44-6.08q-36.22-13.42-36.22-48.14,0-16.2,7.47-27.61a45.41,45.41,0,0,1,20.14-17,69.13,69.13,0,0,1,28.12-5.57,113.21,113.21,0,0,1,47.37,10.13v43.06H235.9V747.09a97.31,97.31,0,0,0-12.16-.76q-22.29,0-22.29,19,0,7.84,4.68,12.79t15.58,9.76l13.43,5.57Q255.66,801.29,264.91,812.32Z"/><path class="cls-16" d="M342.3,747.34V866.41H358v24.06h-68.4V866.41h15.2V747.34h-15.2V723.28H358v24.06Z"/><path class="cls-16" d="M502.91,833.47H492v45.6A72,72,0,0,1,469.47,890a93,93,0,0,1-26.35,3.8q-33.18,0-51.8-22.68T372.7,805.35q0-43.07,18.36-64.09t50.54-21a104.05,104.05,0,0,1,27,3.42q12.8,3.42,21.16,9.24v46.87H457.06V746.33a66.39,66.39,0,0,0-10.39-.76q-11.91,0-19.5,4.81t-11.79,17.86q-4.17,13.05-4.17,36.86,0,35,9.24,49.15t28.75,14.18c1.86,0,4.65-.16,8.36-.5V833.47H442.62V809.66h60.29Z"/><path class="cls-16" d="M661.75,747.34H648.58L608.3,890.47H561.69L520.9,747.34H508.23V723.28h67.9v24.06H559.91l25.34,95.51q2,8.86,3.29,18.49a191.3,191.3,0,0,1,3.8-18.75l24.57-95.25H601V723.28h60.8Z"/><path class="cls-16" d="M723.57,747.34V866.41h15.7v24.06h-68.4V866.41h15.2V747.34h-15.2V723.28h68.4v24.06Z"/><path class="cls-16" d="M856.69,812.32q9.24,11,9.25,29.26,0,25.33-15.46,38.63t-43.06,13.3a140.24,140.24,0,0,1-52.7-10.38V838.54h32.43v27.11a102.39,102.39,0,0,0,18.24,1.52q11.15,0,17.73-4.69t6.59-14.82q0-8.61-4.94-13.43t-16.85-9.62l-14.44-6.08q-36.22-13.42-36.22-48.14,0-16.2,7.47-27.61a45.41,45.41,0,0,1,20.14-17A69.16,69.16,0,0,1,813,720.24a113.21,113.21,0,0,1,47.37,10.13v43.06H827.68V747.09a97.19,97.19,0,0,0-12.16-.76q-22.29,0-22.29,19,0,7.84,4.69,12.79t15.58,9.76l13.42,5.57Q847.44,801.29,856.69,812.32Z"/><path class="cls-16" d="M1029.59,866.41v24.06H963.21V866.41h15.71l-6.84-24.58H925.47l-6.84,24.58h14.69v24.06h-58V866.41h12.92l40.53-143.13h47.37l40.79,143.13ZM943,780l-10.9,38h33.44L954.6,780q-2.54-10.38-5.83-24.83Q946.74,765.33,943,780Z"/></g></g></svg>