<svg version="1.2" xmlns="http://www.w3.org/2000/svg" viewBox="0 0 1920 1080" width="200" height="113">
	<title>
		Novo Projeto
	</title>
	<style>
		.s0 { fill: #fff }
	</style>
	<path id="SEDEN  " fill-rule="evenodd" class="s0" d="m296 771q-90 0-129.9-44.8-39.6-44.8-39.6-142.6v-64.2h129.9v82.1q0 22.8 6.7 35.8 7.1 12.7 24.3 12.7 17.9 0 24.6-10.4 7.1-10.5 7.1-34.4 0-30.2-5.9-50.4-6-20.5-21-38.8-14.5-18.7-40.6-43.3l-59-56q-66.1-62.3-66.1-142.6 0-84 38.8-128 39.2-44.1 113.1-44.1 90.4 0 128.1 48.2 38.1 48.1 38.1 146.3h-133.7v-45.2q0-13.4-7.8-20.9-7.5-7.4-20.6-7.4-15.6 0-23.1 8.9-7.1 8.6-7.1 22.4 0 13.8 7.5 29.9 7.4 16 29.5 36.9l75.7 72.8q22.8 21.7 41.9 45.9 19 23.9 30.6 56 11.5 31.8 11.5 77.7 0 92.6-34.3 145.2-34 52.3-118.7 52.3zm468.1-6h-271.4v-657h262.8v126.9h-129.1v128h123.9v123.6h-123.9v150.4h137.7zm219.5 0h-176.2v-657h180.7q70.9 0 106.8 39.6 35.8 39.2 35.8 115v307.6q0 93.3-32.9 144.1-32.4 50.7-114.2 50.7zm-44-542v426h22.7q36.2 0 36.2-35.1v-339q0-32.9-8.9-42.2-8.6-9.7-35.5-9.7zm516.3 542h-271.4v-657h262.8v127h-129.1v128h123.9v123.6h-123.9v150.4h137.7zm171.7 0h-128.4v-657h135.1l60.5 314.7v-314.7h126.9v657h-128.4l-65.7-328.5zm-1515.3 212.1q-16.6 0-23.9-8.3-7.3-8.2-7.3-26.3v-11.9h23.9v15.2q0 4.2 1.3 6.6 1.3 2.4 4.5 2.4 3.3 0 4.5-2 1.3-1.9 1.3-6.3 0-5.6-1.1-9.3-1.1-3.8-3.8-7.2-2.7-3.4-7.6-8l-10.8-10.3q-12.2-11.5-12.2-26.3 0-15.5 7.1-23.7 7.3-8.1 20.9-8.1 16.7 0 23.6 8.9 7.1 8.9 7.1 27h-24.7v-8.3q0-2.5-1.4-3.9-1.4-1.4-3.8-1.4-2.9 0-4.3 1.7-1.3 1.6-1.3 4.1 0 2.6 1.4 5.5 1.3 3 5.4 6.9l14 13.4q4.2 4 7.7 8.5 3.5 4.4 5.7 10.3 2.1 5.9 2.1 14.3 0 17.1-6.3 26.8-6.3 9.7-22 9.7zm86.5-1.1h-50.1v-121.3h48.5v23.4h-23.9v23.7h22.9v22.8h-22.9v27.8h25.5zm36.2 1.1q-13.1 0-21.2-8.2-8-8.2-8-23v-56q0-17.6 7-27 7-9.3 22.8-9.3 8.6 0 15.3 3.1 6.7 3.2 10.6 9.5 3.8 6.3 3.8 15.9v20.9h-24.1v-17.9q0-5.4-1.4-7.3-1.3-1.9-4.2-1.9-3.4 0-4.6 2.5-1.1 2.4-1.1 6.4v60.8q0 5 1.4 7.1 1.5 2 4.3 2 3.1 0 4.3-2.5 1.3-2.6 1.3-6.6v-21.9h24.4v23q0 16-8 23.2-8.1 7.2-22.6 7.2zm63.2-1.1h-24.5v-121.3h37.2q9.3 0 14.1 4.2 4.7 4.2 6.3 11.9 1.7 7.6 1.7 17.8 0 10-2.6 15.9-2.5 5.9-9.4 8.2 5.7 1.2 8 5.7 2.3 4.5 2.3 11.7v45.9h-23.9v-47.5q0-5.3-2.2-6.6-2.2-1.3-7-1.3zm0.2-98.8v22.5h5.8q5 0 5-11 0-7.1-1.1-9.3-1.1-2.2-4.1-2.2zm92.7 98.8h-50.1v-121.3h48.5v23.5h-23.8v23.6h22.9v22.8h-22.9v27.8h25.4zm42.7 0h-24.3v-98h-14.4v-23.3h53.1v23.3h-14.4zm39.6 0h-23.6l11.7-121.3h41.2l11.5 121.3h-23l-1.7-19.6h-14.6zm7.9-100.6l-4.7 61.7h11.1l-5.3-61.7zm64.9 100.6h-24.5v-121.3h37.2q9.3 0 14 4.3 4.8 4.2 6.4 11.8 1.6 7.6 1.6 17.9 0 9.9-2.5 15.8-2.5 6-9.5 8.2 5.8 1.2 8 5.8 2.4 4.4 2.4 11.6v45.9h-23.9v-47.5q0-5.3-2.2-6.5-2.2-1.3-7-1.3zm0.1-98.9v22.5h5.9q5 0 5-11 0-7.1-1.1-9.3-1.1-2.2-4.1-2.2zm41.5-22.4h23.4v121.3h-23.4zm53.3 121.3h-23.6l11.8-121.3h41.1l11.5 121.3h-22.9l-1.8-19.6h-14.6zm7.9-100.6l-4.6 61.6h11l-5.3-61.6zm106 100.6h-32.5v-121.3h33.3q13.1 0 19.7 7.3 6.6 7.2 6.6 21.2v56.8q0 17.2-6 26.6-6 9.4-21.1 9.4zm-8.1-100.1v78.6h4.2q6.6 0 6.6-6.4v-62.6q0-6.1-1.6-7.8-1.6-1.8-6.6-1.8zm95.4 100.1h-50.2v-121.3h48.6v23.4h-23.9v23.7h22.9v22.8h-22.9v27.7h25.5zm73.6 0h-32.6v-121.3h33.4q13.1 0 19.7 7.4 6.6 7.2 6.6 21.2v56.8q0 17.2-6.1 26.6-6 9.3-21 9.3zm-8.2-100v78.6h4.2q6.7 0 6.7-6.5v-62.5q0-6.1-1.6-7.8-1.6-1.8-6.6-1.8zm95.3 100h-50.1v-121.3h48.5v23.5h-23.8v23.6h22.9v22.8h-22.9v27.8h25.4zm36.8 1.1q-16.6 0-24-8.3-7.3-8.2-7.3-26.3v-11.8h24v15.1q0 4.2 1.3 6.6 1.3 2.4 4.4 2.4 3.4 0 4.6-2 1.3-1.9 1.3-6.3 0-5.6-1.1-9.3-1.1-3.8-3.9-7.2-2.6-3.4-7.5-8l-10.9-10.3q-12.2-11.5-12.2-26.3 0-15.5 7.2-23.7 7.2-8.1 20.9-8.1 16.7 0 23.6 8.9 7.1 8.9 7.1 27h-24.7v-8.3q0-2.5-1.5-3.9-1.3-1.4-3.8-1.4-2.8 0-4.2 1.7-1.3 1.6-1.3 4.1 0 2.6 1.3 5.5 1.4 3 5.5 6.9l14 13.4q4.2 4 7.7 8.5 3.5 4.4 5.6 10.3 2.2 5.9 2.2 14.3 0 17.1-6.4 26.9-6.2 9.6-21.9 9.6zm86.5-1.1h-50.2v-121.3h48.6v23.4h-23.9v23.7h22.9v22.8h-22.9v27.8h25.5zm31.7 0h-23.8v-121.3h25l11.2 58.1v-58.1h23.4v121.3h-23.7l-12.1-60.7zm90.8 0h-33.1l-14.9-121.3h23l8.9 82.5 8-82.5h23zm51 1.1q-14.6 0-22.3-8.8-7.6-8.8-7.6-25.4v-57.6q0-15.6 7.5-23.7 7.7-8 22.4-8 14.7 0 22.2 8 7.7 8.1 7.7 23.7v57.6q0 16.6-7.7 25.4-7.7 8.8-22.2 8.8zm0.2-22.4q5.5 0 5.5-10.7v-59.2q0-8.9-5.4-8.9-6 0-6 9.1v59.2q0 5.6 1.3 8.1 1.4 2.4 4.6 2.4zm88.7 21.3h-49.2v-121.3h24.2v100.6h25zm48.2 0h-33.1l-15-121.4h23.1l8.9 82.6 7.9-82.6h23.1zm20.9-121.3h23.4v121.3h-23.4zm55 121.3h-21.9v-121.3h36.9l10.2 74 10.1-74h37.3v121.3h-22.2v-87.4l-13.9 87.4h-21.8l-14.7-87.4zm133.5 0h-50.1v-121.3h48.5v23.5h-23.8v23.6h22.8v22.8h-22.8v27.8h25.4zm31.7 0h-23.7v-121.3h24.9l11.2 58.1v-58.1h23.4v121.3h-23.7l-12.1-60.7zm81.2 0h-24.2v-98h-14.4v-23.3h53v23.3h-14.4zm50.1 1.1q-14.5 0-22.2-8.7-7.7-8.8-7.7-25.4v-57.7q0-15.5 7.6-23.6 7.7-8.1 22.3-8.1 14.7 0 22.3 8.1 7.7 8.1 7.7 23.6v57.7q0 16.6-7.8 25.4-7.6 8.7-22.2 8.7zm0.2-22.3q5.6 0 5.6-10.7v-59.2q0-8.9-5.4-8.9-6.1 0-6.1 9.1v59.2q0 5.6 1.4 8.1 1.4 2.4 4.5 2.4z" />
</svg>
