<svg id="Capa_1" data-name="Capa 1" xmlns="http://www.w3.org/2000/svg" xmlns:xlink="http://www.w3.org/1999/xlink" viewBox="0 0 1169 1169"><defs><style>.cls-1{stroke:#002a02;stroke-linecap:round;stroke-linejoin:round;stroke-width:35px;opacity:0.82;fill:url(#Gradiente_sem_nome_2);}.cls-2{opacity:0.38;fill:url(#radial-gradient);}.cls-3{fill:#8c9ba1;}.cls-4{fill:#a57c52;}.cls-5,.cls-6{fill:#534741;}.cls-5{opacity:0.12;}.cls-7{fill:#bccbd4;opacity:0.89;}.cls-8{opacity:0.22;}.cls-10,.cls-9{fill:#fff;}.cls-10{opacity:0.31;}.cls-11{fill:#b56650;}.cls-12{fill:#5c8678;}.cls-13{fill:#f29222;}.cls-14{fill:#009244;}.cls-15{fill:#006938;}.cls-16{fill:#003d00;}</style><radialGradient id="Gradiente_sem_nome_2" cx="1540.66" cy="428.62" r="5.76" gradientUnits="userSpaceOnUse"><stop offset="0.18" stop-color="#e6e5e5"/><stop offset="0.53" stop-color="#e1e8db"/><stop offset="1" stop-color="#ddebd3"/></radialGradient><radialGradient id="radial-gradient" cx="784.16" cy="-2653.97" r="213.29" gradientTransform="translate(-184.64 1087.57) scale(1 0.13)" gradientUnits="userSpaceOnUse"><stop offset="0.19" stop-color="#989899"/><stop offset="0.36" stop-color="#a2a2a3" stop-opacity="0.91"/><stop offset="0.65" stop-color="#bebdbe" stop-opacity="0.66"/><stop offset="1" stop-color="#e6e5e5" stop-opacity="0.3"/></radialGradient></defs><circle class="cls-1" cx="584.5" cy="584.5" r="567"/><ellipse class="cls-2" cx="599.52" cy="751.05" rx="213.28" ry="27.05"/><rect class="cls-3" x="837.98" y="536.81" width="73.31" height="344.69" transform="translate(-374.75 884.03) rotate(-58.02)"/><path class="cls-4" d="M1116.12,859.42l-.45.72c-12.24,19.61-34.1,28.07-48.81,18.88L897.77,775.23,942.2,700.5l169.46,106.77C1126.37,816.46,1128.37,839.8,1116.12,859.42Z" transform="translate(-184.64 -191.5)"/><polygon class="cls-5" points="611.89 510.51 622.56 518.28 719.09 493.22 638.66 441.9 611.89 510.51"/><circle class="cls-6" cx="634.83" cy="554.73" r="220.66" transform="translate(-390.96 419.87) rotate(-45)"/><circle class="cls-7" cx="447.44" cy="363.36" r="189.82"/><g class="cls-8"><path class="cls-9" d="M495.72,544c-.93-60.53,38.4-115.3,96.79-132.1s121.73,9,152.37,61.22c8.64,14.74,32.13,2.43,23.48-12.33C733.09,400.61,663.15,369.45,595,384,527.75,398.27,478.17,456,470.09,523.54a145.37,145.37,0,0,0-.88,19.68c.27,17,26.78,17.93,26.51.78Z" transform="translate(-184.64 -191.5)"/></g><circle class="cls-10" cx="777.57" cy="516.96" r="17.47" transform="translate(-193.11 -178.53) rotate(-0.95)"/><path class="cls-11" d="M900,772.76l42.28-71.1a5.54,5.54,0,0,0-1.46-7.28l-.74-.55a5.54,5.54,0,0,0-8.09,1.66l-41.63,71.6a5.55,5.55,0,0,0,2.1,7.63l.09,0A5.55,5.55,0,0,0,900,772.76Z" transform="translate(-184.64 -191.5)"/><path class="cls-12" d="M820,556.08a189.31,189.31,0,0,1-46.87,124.16C743.4,714.11,702,736,657.45,742.28c-45.53,6.46-92.54-5.09-130.59-30.61-37.05-24.85-64.09-63.18-75.95-106.09-12.29-44.49-7.2-93,13.52-134.17a189.3,189.3,0,0,1,95.23-88.71c42.74-17.9,91.25-19,134.94-3.84,42.08,14.57,77.82,44.86,100.21,83.18a188,188,0,0,1,25.2,94c0,6.52,10.12,6.52,10.09,0a200.17,200.17,0,0,0-44.68-125.24c-28-34.68-68.19-58.93-111.7-68.32A199.7,199.7,0,0,0,540,380.86c-39.28,20.46-70.95,54.71-88.89,95.13a199.76,199.76,0,0,0-9.22,134.9c12.18,42.91,39.44,80.45,75.5,106.47,37.08,26.75,83.4,39.29,128.89,36.16,45.11-3.11,88-22.19,121.07-52.88,40-37.06,62.54-90.2,62.73-144.56C830.13,549.57,820,549.57,820,556.08Z" transform="translate(-184.64 -191.5)"/><circle class="cls-13" cx="452.19" cy="318.85" r="45.86"/><path class="cls-14" d="M635.39,572.58c-25.63,0-50.68-5.58-72.43-16.14-21.13-10.26-38.44-24.82-50.08-42.12l-2.63-3.9,2.63-3.9c11.64-17.3,29-31.87,50.08-42.12,21.75-10.56,46.8-16.14,72.43-16.14s50.68,5.58,72.43,16.14c21.13,10.25,38.45,24.82,50.09,42.12l2.62,3.9-2.62,3.9c-11.64,17.3-29,31.86-50.09,42.12C686.07,567,661,572.58,635.39,572.58ZM534.17,510.42c9.77,13,23.42,23.94,39.76,31.87a144.83,144.83,0,0,0,122.93,0c16.33-7.93,30-18.89,39.76-31.87-9.78-13-23.43-23.95-39.76-31.88a144.92,144.92,0,0,0-122.93,0C557.59,486.47,543.94,497.43,534.17,510.42Z" transform="translate(-184.64 -191.5)"/><path class="cls-15" d="M541.56,600.5h-2.7l-8.37,29H523l-8.42-29h-2.7v-4h12.52v4h-3.56l5.81,20.84c.14.47.26,1,.38,1.61s.21,1.07.27,1.4c.21-1,.42-2.06.66-3.06l5.71-20.79h-3.41v-4h11.32Z" transform="translate(-184.64 -191.5)"/><path class="cls-15" d="M553,600.5v25h3.26v4.06H543.67v-4.06h3.25v-25h-3.25v-4h12.62v4Z" transform="translate(-184.64 -191.5)"/><path class="cls-15" d="M585.15,617.89h-2.31v9.41a14.37,14.37,0,0,1-4.23,2.06,16.81,16.81,0,0,1-5,.75,12.2,12.2,0,0,1-10-4.46q-3.6-4.46-3.6-12.92t3.58-12.65a12.28,12.28,0,0,1,9.84-4.19,18.61,18.61,0,0,1,5,.66,13.14,13.14,0,0,1,3.93,1.7v8.82h-5.41v-6.62a16.37,16.37,0,0,0-2.76-.25,8,8,0,0,0-4.33,1.1,7,7,0,0,0-2.65,3.81,23.84,23.84,0,0,0-.93,7.47q0,7.15,2.13,10.22a7.08,7.08,0,0,0,6.19,3.05,10.91,10.91,0,0,0,2.55-.3v-7.66h-3.66v-4.06h11.68Z" transform="translate(-184.64 -191.5)"/><path class="cls-15" d="M597.92,600.5v25h3.26v4.06H588.55v-4.06h3.26v-25h-3.26v-4h12.63v4Z" transform="translate(-184.64 -191.5)"/><path class="cls-15" d="M627.53,620.49v9h-22.7v-4.06h3.26v-25h-3.26v-4h13.53v4H614.2v25h7.92v-5Z" transform="translate(-184.64 -191.5)"/><path class="cls-15" d="M658.59,625.45v4.06H646.31v-4.06h3.46l-1.65-5.86H638l-1.66,5.86h3.21v4.06h-11v-4.06h2.65l8.47-29h7.77l8.46,29Zm-10.82-31.56-4.31-3.71-4.11,3.71h-4l6.16-7.66h4.11l6.11,7.66Zm-8.62,21.64h7.76l-2.85-9.62-.4-1.6-.6-2.5-1.06,4.1Z" transform="translate(-184.64 -191.5)"/><path class="cls-15" d="M691.1,600.5h-3.21v29H680l-8.77-20.44c-.8-2.1-1.55-4.43-2.25-7v23.34h3v4.06H660.84v-4.06h3.26v-25h-3.26v-4h11.52l8.27,19.43c1.13,3.24,1.92,5.7,2.35,7.37V600.5h-3.1v-4H691.1Z" transform="translate(-184.64 -191.5)"/><path class="cls-15" d="M717.15,625.9a10.13,10.13,0,0,1-3.91,3.13,13.44,13.44,0,0,1-12.3-.9,12.66,12.66,0,0,1-4.68-5.91,24.62,24.62,0,0,1-1.66-9.54q0-8.41,3.61-12.6a12,12,0,0,1,9.57-4.19,15.66,15.66,0,0,1,4.61.66,13.66,13.66,0,0,1,3.71,1.7v9.22h-5.36V600.4a9.62,9.62,0,0,0-2.11-.2,6.67,6.67,0,0,0-5.83,2.71q-1.93,2.7-1.93,9.42t2.1,9.76a7,7,0,0,0,6.06,3,8.53,8.53,0,0,0,3.33-.6,11.37,11.37,0,0,0,2.88-1.8Z" transform="translate(-184.64 -191.5)"/><path class="cls-15" d="M729.67,600.5v25h3.26v4.06H720.3v-4.06h3.26v-25H720.3v-4h12.63v4Z" transform="translate(-184.64 -191.5)"/><path class="cls-15" d="M765.09,625.45v4.06H752.82v-4.06h3.45l-1.65-5.86H744.5l-1.65,5.86h3.2v4.06h-11v-4.06h2.66l8.46-29H754l8.47,29Zm-19.44-9.92h7.77l-2.86-9.62-.4-1.6-.6-2.5-1,4.1Z" transform="translate(-184.64 -191.5)"/><path class="cls-15" d="M533.34,666.09a8.08,8.08,0,0,1,2,5.76,8.78,8.78,0,0,1-3.27,7.39c-2.18,1.68-5.11,2.53-8.79,2.53a27.69,27.69,0,0,1-10.66-2.11V671h5.68v5.86a21.84,21.84,0,0,0,4.61.5,7.86,7.86,0,0,0,4.39-1.1A3.86,3.86,0,0,0,529,672.8a3.92,3.92,0,0,0-1.15-3.06,12.2,12.2,0,0,0-3.83-2l-3.16-1.25a14.24,14.24,0,0,1-5.63-3.61,9.19,9.19,0,0,1,1.23-12.8,13.38,13.38,0,0,1,8.2-2.43,24.71,24.71,0,0,1,5.15.53,18.85,18.85,0,0,1,4.39,1.47V658h-5.73v-5.76a23,23,0,0,0-3.27-.25,7.2,7.2,0,0,0-4.18,1,3.71,3.71,0,0,0-1.5,3.26,3.76,3.76,0,0,0,1.1,2.83,11,11,0,0,0,3.61,2.08l2.95,1.2A15.47,15.47,0,0,1,533.34,666.09Z" transform="translate(-184.64 -191.5)"/><path class="cls-15" d="M569.7,677.16v4.05H556.57v-4.05h3.7l-1.77-5.86H547.68l-1.77,5.86h3.43v4.05H537.6v-4.05h2.84l9.06-29h8.31l9.05,29Zm-20.79-9.92h8.31l-3.06-9.62-.43-1.6-.64-2.51L552,657.62Z" transform="translate(-184.64 -191.5)"/><path class="cls-15" d="M604.48,652.21h-3.43v29h-8.41l-9.38-20.43q-1.29-3.16-2.41-7v23.35h3.27v4.05h-12v-4.05h3.49V652.21h-3.49v-4.06h12.33l8.84,19.44q1.83,4.86,2.52,7.36V652.21h-3.32v-4.06h12Z" transform="translate(-184.64 -191.5)"/><path class="cls-15" d="M618.36,652.21v24.95h3.48v4.05h-13.5v-4.05h3.48V652.21h-3.48v-4.06h13.5v4.06Z" transform="translate(-184.64 -191.5)"/><path class="cls-15" d="M653.52,648.15v9.12h-5.58v-5.06h-5.57v24.95H647v4.05H631.17v-4.05h4.66V652.21H630.2v5h-5.57v-9.07Z" transform="translate(-184.64 -191.5)"/><path class="cls-15" d="M684.33,677.16v4.05H671.2v-4.05h3.7l-1.77-5.86H662.3l-1.76,5.86H664v4.05H652.23v-4.05h2.84l9.06-29h8.3l9.06,29Zm-20.79-9.92h8.3l-3.05-9.62-.43-1.6-.64-2.51-1.13,4.11Zm12.38-29a.86.86,0,0,1,.32.67,1.68,1.68,0,0,1-.7,1.16L670,645.6h-4l4.12-7.67h5.1A1.11,1.11,0,0,1,675.92,638.21Z" transform="translate(-184.64 -191.5)"/><path class="cls-15" d="M716.05,677.16v4.05a11.27,11.27,0,0,1-3.26.46,7.41,7.41,0,0,1-4-1,8.33,8.33,0,0,1-2.81-3.5l-5.26-9.87h-4.18v9.87h3.17v4.05H686.58v-4.05h3.48V652.21h-3.48v-4.06H701.1q5.58,0,8.87,2.33c2.2,1.55,3.3,3.92,3.3,7.09a9.2,9.2,0,0,1-1.61,5.56,9.33,9.33,0,0,1-4.55,3.26l5.09,8.91a4.36,4.36,0,0,0,1.2,1.43,2.58,2.58,0,0,0,1.53.43Zm-19.56-13.93h4.56a5.54,5.54,0,0,0,4.23-1.48,5.77,5.77,0,0,0,1.4-4.13,5.36,5.36,0,0,0-1.45-4,6.12,6.12,0,0,0-4.45-1.43h-4.29Z" transform="translate(-184.64 -191.5)"/><path class="cls-15" d="M728.11,652.21v24.95h3.49v4.05H718.09v-4.05h3.48V652.21h-3.48v-4.06H731.6v4.06Z" transform="translate(-184.64 -191.5)"/><path class="cls-15" d="M766,677.16v4.05H752.87v-4.05h3.7l-1.77-5.86H744l-1.76,5.86h3.43v4.05H733.9v-4.05h2.84l9.06-29h8.3l9.06,29Zm-20.79-9.92h8.3l-3-9.62L750,656l-.64-2.51-1.13,4.11Z" transform="translate(-184.64 -191.5)"/><path class="cls-16" d="M429.67,1004.88q8.83,10.54,8.84,28,0,24.24-14.78,37t-41.2,12.72a134.18,134.18,0,0,1-50.42-9.93V1030h31v25.93a97.55,97.55,0,0,0,17.45,1.46q10.65,0,17-4.49t6.3-14.18q0-8.24-4.72-12.84T383,1016.64l-13.81-5.82Q334.54,998,334.54,964.77q0-15.49,7.15-26.41A43.29,43.29,0,0,1,361,922.12a66.11,66.11,0,0,1,26.9-5.33,108.31,108.31,0,0,1,45.32,9.69v41.2H401.91v-25.2a92.53,92.53,0,0,0-11.63-.73q-21.33,0-21.33,18.18c0,5,1.49,9.08,4.49,12.24s7.95,6.26,14.9,9.33l12.85,5.33Q420.81,994.35,429.67,1004.88Z" transform="translate(-184.64 -191.5)"/><path class="cls-16" d="M503.71,942.72v113.91h15v23H453.3v-23h14.54V942.72H453.3v-23h65.43v23Z" transform="translate(-184.64 -191.5)"/><path class="cls-16" d="M631.07,1004.88q8.83,10.54,8.84,28,0,24.24-14.78,37t-41.2,12.72a134.13,134.13,0,0,1-50.41-9.93V1030h31v25.93a97.63,97.63,0,0,0,17.45,1.46q10.66,0,17-4.49t6.31-14.18q0-8.24-4.73-12.84t-16.12-9.21l-13.81-5.82Q535.93,998,535.94,964.77q0-15.49,7.15-26.41a43.34,43.34,0,0,1,19.27-16.24,66.14,66.14,0,0,1,26.9-5.33,108.28,108.28,0,0,1,45.32,9.69v41.2H603.32v-25.2a92.81,92.81,0,0,0-11.64-.73q-21.33,0-21.32,18.18c0,5,1.49,9.08,4.48,12.24s8,6.26,14.9,9.33l12.85,5.33Q622.22,994.35,631.07,1004.88Z" transform="translate(-184.64 -191.5)"/><path class="cls-16" d="M853,942.72h-12.6l-38.54,136.93H757.22l-39-136.93H706.08v-23h65v23H755.52l24.24,91.37q1.93,8.49,3.15,17.69,1-7,3.63-17.93l23.51-91.13H794.79v-23H853Z" transform="translate(-184.64 -191.5)"/><path class="cls-16" d="M912.09,942.72v113.91h15v23H861.68v-23h14.54V942.72H861.68v-23h65.44v23Z" transform="translate(-184.64 -191.5)"/><path class="cls-16" d="M1039.45,1004.88q8.85,10.54,8.85,28,0,24.24-14.79,37t-41.2,12.72a134.13,134.13,0,0,1-50.41-9.93V1030h31v25.93a97.63,97.63,0,0,0,17.45,1.46q10.67,0,17-4.49t6.3-14.18q0-8.24-4.73-12.84t-16.12-9.21L979,1010.82Q944.32,998,944.32,964.77q0-15.49,7.15-26.41a43.4,43.4,0,0,1,19.27-16.24,66.18,66.18,0,0,1,26.9-5.33,108.28,108.28,0,0,1,45.32,9.69v41.2H1011.7v-25.2a92.77,92.77,0,0,0-11.63-.73q-21.33,0-21.33,18.18c0,5,1.49,9.08,4.48,12.24s8,6.26,14.91,9.33l12.84,5.33Q1030.61,994.35,1039.45,1004.88Z" transform="translate(-184.64 -191.5)"/><path class="cls-16" d="M1204.86,1056.63v23h-63.49v-23h15l-6.54-23.51h-44.6l-6.54,23.51h14.06v23h-55.51v-23h12.36l38.78-136.94h45.32l39,136.94ZM1122,974l-10.42,36.36h32L1133.12,974q-2.41-9.93-5.57-23.75Q1125.6,959.94,1122,974Z" transform="translate(-184.64 -191.5)"/><path class="cls-15" d="M438.73,1007.48q8.85,10.53,8.85,28,0,24.24-14.79,37t-41.2,12.72a134.13,134.13,0,0,1-50.41-9.93v-42.66h31v25.93a97.71,97.71,0,0,0,17.45,1.46q10.67,0,17-4.49t6.3-14.17q0-8.25-4.73-12.85t-16.11-9.21l-13.82-5.82q-34.67-12.84-34.66-46,0-15.5,7.15-26.41A43.46,43.46,0,0,1,370,924.71a66.18,66.18,0,0,1,26.9-5.33,108.32,108.32,0,0,1,45.33,9.69v41.2H411v-25.2a92.65,92.65,0,0,0-11.63-.73q-21.33,0-21.33,18.18,0,7.51,4.48,12.24t14.91,9.33l12.84,5.33Q429.89,996.94,438.73,1007.48Z" transform="translate(-184.64 -191.5)"/><path class="cls-15" d="M512.77,945.31v113.91h15v23H462.36v-23H476.9V945.31H462.36v-23H527.8v23Z" transform="translate(-184.64 -191.5)"/><path class="cls-15" d="M640.14,1007.48q8.83,10.53,8.84,28,0,24.24-14.78,37T593,1085.15a134.18,134.18,0,0,1-50.42-9.93v-42.66h31v25.93a97.55,97.55,0,0,0,17.45,1.46q10.65,0,17-4.49t6.3-14.17q0-8.25-4.72-12.85t-16.12-9.21l-13.81-5.82q-34.67-12.84-34.66-46,0-15.5,7.15-26.41a43.35,43.35,0,0,1,19.27-16.24,66.11,66.11,0,0,1,26.9-5.33,108.31,108.31,0,0,1,45.32,9.69v41.2H612.38v-25.2a92.53,92.53,0,0,0-11.63-.73q-21.33,0-21.33,18.18,0,7.51,4.49,12.24t14.9,9.33l12.85,5.33Q631.3,996.94,640.14,1007.48Z" transform="translate(-184.64 -191.5)"/><path class="cls-15" d="M862,945.31h-12.6l-38.54,136.94H766.29l-39-136.94H715.15v-23h65v23H764.59l24.24,91.37q1.93,8.49,3.15,17.69a182.62,182.62,0,0,1,3.63-17.93l23.51-91.13H803.85v-23H862Z" transform="translate(-184.64 -191.5)"/><path class="cls-15" d="M921.16,945.31v113.91h15v23H870.74v-23h14.55V945.31H870.74v-23h65.44v23Z" transform="translate(-184.64 -191.5)"/><path class="cls-15" d="M1048.52,1007.48q8.84,10.53,8.85,28,0,24.24-14.79,37t-41.2,12.72a134.13,134.13,0,0,1-50.41-9.93v-42.66h31v25.93a97.63,97.63,0,0,0,17.45,1.46q10.66,0,17-4.49t6.3-14.17q0-8.25-4.73-12.85t-16.12-9.21l-13.81-5.82q-34.66-12.84-34.66-46,0-15.5,7.15-26.41a43.41,43.41,0,0,1,19.27-16.24,66.14,66.14,0,0,1,26.9-5.33,108.28,108.28,0,0,1,45.32,9.69v41.2h-31.26v-25.2a92.81,92.81,0,0,0-11.64-.73q-21.33,0-21.32,18.18,0,7.51,4.48,12.24t14.91,9.33l12.84,5.33Q1039.68,996.94,1048.52,1007.48Z" transform="translate(-184.64 -191.5)"/><path class="cls-15" d="M1213.93,1059.22v23h-63.5v-23h15l-6.55-23.51h-44.59l-6.54,23.51h14v23h-55.5v-23h12.36l38.78-136.93h45.32l39,136.93ZM1131,976.57l-10.42,36.36h32l-10.42-36.36q-2.43-9.93-5.57-23.75Q1134.67,962.52,1131,976.57Z" transform="translate(-184.64 -191.5)"/></svg>